<svg width="242" height="48" fill="none" xmlns="http://www.w3.org/2000/svg"><g fill-rule="evenodd" clip-rule="evenodd"><path d="M57.759 30.584V9.734h3.492c1.446 0 2.808.258 4.086.773a10.169 10.169 0 013.347 2.169 10.372 10.372 0 012.262 3.307c.555 1.275.833 2.671.833 4.19 0 1.428-.242 2.748-.727 3.958a9.786 9.786 0 01-2.011 3.16 10.277 10.277 0 01-3.002 2.168c-1.147.552-2.38.881-3.704.99a57.02 57.02 0 01-1.164.095 16.908 16.908 0 01-1.19.04h-2.222zm23.492-4.921c.477-1.726.714-3.547.714-5.463 0-1.898-.242-3.715-.727-5.45A20.705 20.705 0 0079.2 9.896a19.222 19.222 0 00-3.16-4.066 20.659 20.659 0 00-4.087-3.118A20.02 20.02 0 0067.138.705 20.229 20.229 0 0061.78 0H48.74c-.405 0-.71.118-.912.353a1.191 1.191 0 00-.27.568 1.836 1.836 0 00-.034.354v37.877c0 .47.123.777.37.922.247.145.53.217.846.217h13.042c1.852 0 3.641-.23 5.37-.691a20.227 20.227 0 004.828-1.966c1.49-.85 2.848-1.88 4.074-3.091a19.946 19.946 0 003.16-4.054 19.747 19.747 0 002.038-4.826zm41.054 13.147c.036-.17.054-.346.054-.526V7.728c0-.151-.011-.295-.034-.43a2.01 2.01 0 00-.124-.438 1.74 1.74 0 00-.529-.678 1.315 1.315 0 00-.688-.38 4.04 4.04 0 00-.491-.072l-.098-.006a2.309 2.309 0 00-.099-.003h-3.942c-.353 0-.626.023-.82.068a.977.977 0 00-.489.271 1.507 1.507 0 00-.246.355c-.043.08-.084.17-.125.27-.114.28-.26.645-.436 1.097l-.767 2.468a11.98 11.98 0 00-1.667-1.967 10.264 10.264 0 00-2.13-1.559 11.486 11.486 0 00-2.592-1.03 11.768 11.768 0 00-3.055-.38c-2.399 0-4.647.457-6.746 1.37a16.973 16.973 0 00-5.476 3.769c-1.552 1.6-2.777 3.48-3.677 5.639-.9 2.16-1.35 4.497-1.35 7.01a18.5 18.5 0 00.61 4.784 17.91 17.91 0 001.732 4.27 17.737 17.737 0 002.685 3.593 16.974 16.974 0 003.48 2.766 16.904 16.904 0 008.743 2.4c.898 0 1.766-.114 2.604-.34a12.278 12.278 0 002.355-.894 12.5 12.5 0 002.01-1.261c.608-.47 1.151-.949 1.628-1.437l.343 1.22c.106.308.207.592.304.854s.216.484.357.665c.142.18.327.32.556.42.229.1.529.149.899.149h5.212c.194 0 .423-.027.688-.081.264-.055.493-.181.688-.38a1.35 1.35 0 00.529-.665 2.46 2.46 0 00.104-.355zM96.302 23.1a10.114 10.114 0 00.625 3.579l.04.103.052.13c.084.204.174.402.27.594a7.618 7.618 0 001.103 1.641 7.355 7.355 0 002.42 1.803c.943.443 1.988.664 3.135.664 1.181 0 2.279-.22 3.293-.664a8.405 8.405 0 002.646-1.803 8.19 8.19 0 001.759-2.698 8.798 8.798 0 00.635-3.348c0-1.157-.212-2.26-.635-3.308a8.8 8.8 0 00-1.759-2.766 8.343 8.343 0 00-2.646-1.884 7.862 7.862 0 00-3.293-.692c-1.147 0-2.192.231-3.135.692a7.342 7.342 0 00-2.42 1.884 8.6 8.6 0 00-1.548 2.766 10.066 10.066 0 00-.542 3.308zm42.538 15.392v8.638c0 .48-.38.87-.849.87h-8.434a.86.86 0 01-.849-.87V7.727c0-.146.011-.283.033-.409a1.5 1.5 0 01.166-.485 3.12 3.12 0 01.489-.65 1.621 1.621 0 01.872-.412 3.51 3.51 0 01.557-.05h3.994c.202 0 .383.02.544.06a1.468 1.468 0 01.831.55c.142.19.261.407.358.65.096.245.189.512.278.801l.595 1.76a.84.84 0 001.476.245c.178-.237.356-.476.534-.717a9.993 9.993 0 011.786-1.844c.688-.552 1.508-1.007 2.46-1.37.952-.36 2.116-.541 3.492-.541 2.416 0 4.642.456 6.68 1.369a15.907 15.907 0 015.264 3.768c1.472 1.6 2.623 3.48 3.452 5.64.829 2.16 1.243 4.497 1.243 7.009 0 2.494-.414 4.826-1.243 6.995-.829 2.17-1.98 4.053-3.452 5.653a16.08 16.08 0 01-5.264 3.783c-2.038.921-4.264 1.383-6.68 1.383-1.147 0-2.134-.14-2.963-.421a8.62 8.62 0 01-2.209-1.098 10.75 10.75 0 01-1.386-1.157l-.12-.122a8.463 8.463 0 01-.2-.212c-.521-.572-1.455-.195-1.455.587zm-.739-15.798c.022-.462.079-.913.171-1.354l.026-.122.06-.246a8.829 8.829 0 012.349-4.04 8.458 8.458 0 012.618-1.735 7.98 7.98 0 013.161-.637c1.129 0 2.16.226 3.096.678a7.41 7.41 0 012.407 1.843 8.514 8.514 0 011.561 2.725c.37 1.04.555 2.138.555 3.295 0 1.193-.185 2.314-.555 3.362-.371 1.049-.891 1.957-1.561 2.724a7.486 7.486 0 01-2.407 1.83c-.936.453-1.967.678-3.096.678a7.966 7.966 0 01-3.254-.677 8.577 8.577 0 01-2.671-1.83 8.535 8.535 0 01-1.799-2.725 8.578 8.578 0 01-.661-3.362v-.407zm41.133 15.772v8.675a.849.849 0 01-.838.859h-8.455a.85.85 0 01-.838-.86V7.728c0-.36.066-.659.198-.894s.296-.452.49-.65c.229-.2.467-.326.714-.38.246-.055.485-.082.714-.082h3.994c.335 0 .613.055.834.163.22.108.401.258.542.447.141.19.26.407.357.65.097.245.19.512.278.801l.602 1.778a.83.83 0 001.459.242l.545-.732a9.987 9.987 0 011.785-1.844c.688-.552 1.508-1.007 2.461-1.37.952-.36 2.116-.541 3.491-.541 2.416 0 4.643.456 6.68 1.369a15.921 15.921 0 015.265 3.768c1.472 1.6 2.623 3.48 3.451 5.64.829 2.16 1.244 4.497 1.244 7.009 0 2.494-.415 4.826-1.244 6.995-.828 2.17-1.979 4.053-3.451 5.653a16.095 16.095 0 01-5.265 3.783c-2.037.921-4.264 1.383-6.68 1.383-.247 0-.486-.007-.719-.02a10.713 10.713 0 01-.66-.057 8.833 8.833 0 01-.686-.107 7.12 7.12 0 01-.897-.237 8.603 8.603 0 01-2.209-1.098 10.272 10.272 0 01-1.707-1.492l-.014-.016c-.515-.566-1.441-.196-1.441.578zm-.74-15.772a8.295 8.295 0 01.78-3.172 8.829 8.829 0 011.826-2.59 8.458 8.458 0 012.618-1.735 7.984 7.984 0 013.161-.637c1.129 0 2.161.226 3.096.678a7.41 7.41 0 012.407 1.843 8.514 8.514 0 011.561 2.725c.37 1.04.555 2.138.555 3.295 0 1.193-.185 2.314-.555 3.362-.371 1.049-.891 1.957-1.561 2.724a7.486 7.486 0 01-2.407 1.83c-.935.453-1.967.678-3.096.678a7.966 7.966 0 01-3.254-.677 8.588 8.588 0 01-2.671-1.83 8.535 8.535 0 01-1.799-2.725 8.578 8.578 0 01-.661-3.362v-.407zm37.472 24.188l2.411-6.423a.834.834 0 00-.006-.606L205.873 8.46c-.282-.723-.287-1.343-.014-1.858.274-.515.877-.772 1.813-.772h6.534c.44 0 .802.14 1.085.42.281.28.493.628.634 1.043l6.721 19.596a.797.797 0 001.517-.005l6.576-19.59c.194-.578.441-.967.741-1.166.3-.199.714-.298 1.243-.298h6.799c.493 0 .881.067 1.164.203.282.135.481.316.595.542.091.179.135.374.132.586a1.477 1.477 0 01-.013.173c-.036.28-.106.556-.212.827l-2.195 5.572c-.794 2.015-1.618 4.112-2.473 6.29-.856 2.178-1.725 4.393-2.606 6.643-.882 2.25-1.742 4.46-2.579 6.63a3493.92 3493.92 0 01-2.421 6.249 1650.334 1650.334 0 00-3.06 7.934.801.801 0 01-.747.521h-8.393c-.563 0-.951-.579-.748-1.118z" fill="#1F2431"/><path d="M5.703 17.28c3.15 0 5.702-2.579 5.702-5.76 0-3.181-2.553-5.76-5.702-5.76C2.553 5.76 0 8.34 0 11.52c0 3.181 2.553 5.76 5.703 5.76zm19.009 19.2c3.15 0 5.703-2.579 5.703-5.76 0-3.181-2.554-5.76-5.703-5.76-3.15 0-5.703 2.579-5.703 5.76 0 3.181 2.553 5.76 5.703 5.76zm-.146-28.8c-3.23 0-5.849 2.646-5.849 5.908 0 3.263 2.619 5.908 5.85 5.908 3.23 0 5.848-2.645 5.848-5.908 0-3.262-2.619-5.907-5.849-5.907zM5.85 26.585C2.62 26.585 0 29.23 0 32.493 0 35.755 2.619 38.4 5.849 38.4s5.849-2.645 5.849-5.907c0-3.263-2.619-5.908-5.85-5.908z" fill="#315EFB"/></g></svg>