<svg width="366" height="198" fill="none" xmlns="http://www.w3.org/2000/svg"><path d="M39.31 91.336c81.536-22.357 152.797-69.502 223.947-74.714 117.341-8.595 141.711 74.714 33.664 74.714-38.496 0-50.734 106.664-163.57 106.664-98.542 0-187.005-81.172-94.04-106.664z" fill="#fff"/><ellipse cx="175.302" cy="52.615" rx="52.603" ry="52.614" fill="url(#paint0_linear)"/><ellipse cx="129.603" cy="129.386" rx="52.603" ry="52.614" fill="url(#paint1_linear)"/><circle cx="231.5" cy="43.5" r="18.5" fill="url(#paint2_linear)"/><ellipse cx="220.397" cy="129.386" rx="52.603" ry="52.614" fill="url(#paint3_linear)"/><circle cx="81" cy="107" r="12" fill="url(#paint4_linear)"/><defs><linearGradient id="paint0_linear" x1="238.511" y1="147.236" x2="122.666" y2="-15.322" gradientUnits="userSpaceOnUse"><stop stop-color="#315EFB"/><stop offset="1" stop-color="#315EFB" stop-opacity="0"/></linearGradient><linearGradient id="paint1_linear" x1="192.811" y1="224.007" x2="76.966" y2="61.449" gradientUnits="userSpaceOnUse"><stop stop-color="#28BC00"/><stop offset="1" stop-color="#28BC00" stop-opacity="0"/></linearGradient><linearGradient id="paint2_linear" x1="253.73" y1="76.77" x2="213" y2="19.604" gradientUnits="userSpaceOnUse"><stop stop-color="#28BC00"/><stop offset="1" stop-color="#28BC00" stop-opacity="0"/></linearGradient><linearGradient id="paint3_linear" x1="277.359" y1="162.749" x2="137.819" y2="154.111" gradientUnits="userSpaceOnUse"><stop stop-color="#DADAFF"/><stop offset="1" stop-color="#EEF" stop-opacity="0"/></linearGradient><linearGradient id="paint4_linear" x1="93.995" y1="114.609" x2="62.162" y2="112.638" gradientUnits="userSpaceOnUse"><stop stop-color="#DADAFF"/><stop offset="1" stop-color="#EEF" stop-opacity="0"/></linearGradient></defs></svg>