<svg width="402" height="145" fill="none" xmlns="http://www.w3.org/2000/svg"><path d="M340.167 21.294c-35.468-9.073-78.67 3.78-95.837 11.342C141.775 53.219 133.714 14.153 60.269 12.053c-73.445-2.1-64.936 58.809-50.606 83.592 14.331 24.784 51.054-10.501 79.715-12.182 28.662-1.68 31.797 42.426 97.629 28.984 65.832-13.442 62.697-5.88 131.664 0 68.967 5.881 82.402-35.285 83.298-52.507.896-17.223-17.466-27.304-61.802-38.646z" fill="#fff"/><circle cx="123.5" cy="44.5" r="26.5" fill="url(#paint0_linear)"/><circle cx="197.5" cy="72.5" r="72.5" fill="url(#paint1_linear)"/><circle cx="278" cy="95" r="42" fill="url(#paint2_linear)"/><circle cx="97" cy="65" r="15" fill="url(#paint3_linear)"/><defs><linearGradient id="paint0_linear" x1="155.342" y1="92.157" x2="97" y2="10.271" gradientUnits="userSpaceOnUse"><stop stop-color="#315EFB"/><stop offset="1" stop-color="#315EFB" stop-opacity="0"/></linearGradient><linearGradient id="paint1_linear" x1="284.617" y1="202.883" x2="125" y2="-21.146" gradientUnits="userSpaceOnUse"><stop stop-color="#28BC00"/><stop offset="1" stop-color="#28BC00" stop-opacity="0"/></linearGradient><linearGradient id="paint2_linear" x1="323.48" y1="121.632" x2="212.067" y2="114.734" gradientUnits="userSpaceOnUse"><stop stop-color="#DADAFF"/><stop offset="1" stop-color="#EEF" stop-opacity="0"/></linearGradient><linearGradient id="paint3_linear" x1="113.243" y1="74.511" x2="73.452" y2="72.048" gradientUnits="userSpaceOnUse"><stop stop-color="#DADAFF"/><stop offset="1" stop-color="#EEF" stop-opacity="0"/></linearGradient></defs></svg>