<svg width="369" height="162" fill="none" xmlns="http://www.w3.org/2000/svg"><path d="M360.637 112.96c-4.001 22.674-25.921 31.094-36.381 32.47-46.239-7.254-99.652 17.324-140.245 11.324-40.592-6-72.768-38.351-92.106-48.947C72.567 97.211-25.41 88.331 7.542 53.181c32.95-35.15 85.378-1.863 165.349 6.032 79.972 7.896 73.679-22.955 109.417-33.375 35.739-10.42 64.154 4.109 76.857 19.67 12.703 15.56 6.473 39.11 1.472 67.452z" fill="#fff"/><path d="M195.514 0c-40.213-.008-72.819 32.436-72.827 72.466-.005 26.148 14.139 50.273 37.013 63.129.698.401 1.53.504 2.306.284a3.03 3.03 0 001.821-1.414l22.46-39.512a3.014 3.014 0 00-1.147-4.115c-10.231-5.72-13.866-18.613-8.12-28.796 5.747-10.184 18.698-13.803 28.929-8.083 10.23 5.72 13.865 18.613 8.119 28.796a21.198 21.198 0 01-8.119 8.083 3.014 3.014 0 00-1.148 4.115l22.399 39.512a3.033 3.033 0 001.821 1.42c.265.076.538.115.814.115a3.05 3.05 0 001.493-.393c35.023-19.67 47.397-63.878 27.637-98.742C246.049 14.077 221.798-.013 195.514 0z" fill="url(#paint0_linear)"/><ellipse cx="294.737" cy="95.273" rx="15.262" ry="15.188" fill="url(#paint1_linear)"/><ellipse cx="121.994" cy="33.829" rx="33.994" ry="33.829" fill="url(#paint2_linear)"/><defs><linearGradient id="paint0_linear" x1="283.061" y1="190.29" x2="136.983" y2="-29.341" gradientUnits="userSpaceOnUse"><stop stop-color="#28BC00"/><stop offset="1" stop-color="#28BC00" stop-opacity="0"/></linearGradient><linearGradient id="paint1_linear" x1="313.077" y1="122.588" x2="279.691" y2="75.501" gradientUnits="userSpaceOnUse"><stop stop-color="#315EFB"/><stop offset="1" stop-color="#315EFB" stop-opacity="0"/></linearGradient><linearGradient id="paint2_linear" x1="158.804" y1="55.28" x2="68.632" y2="49.67" gradientUnits="userSpaceOnUse"><stop stop-color="#DADAFF"/><stop offset="1" stop-color="#EEF" stop-opacity="0"/></linearGradient></defs></svg>