<svg width="381" height="221" fill="none" xmlns="http://www.w3.org/2000/svg"><path d="M281.915 87.776C221.926 75.89 163.137 62.313 114.342 34.152 38.496-9.623-37.897 129.349 35.46 108.995c203.666-56.51 206.137 110.366 281.202 82.839 75.055-27.523 94.979-78.351-34.747-104.058z" fill="#fff"/><path d="M258 23.078L217.774 44.33l-32.197 7.06-32.505-7.06L113 23l13.821 64.15-13.126 35.992 46.017 28.7 25.556 27.925V180l.155-.155.154.155v-.233l25.557-27.925 46.171-28.7-13.126-35.915L258 23.077z" fill="url(#paint0_linear)"/><circle cx="301.5" cy="58.5" r="9.5" fill="url(#paint1_linear)"/><circle cx="258" cy="102" r="34" fill="url(#paint2_linear)"/><circle cx="94.5" cy="84.5" r="17.5" fill="url(#paint3_linear)"/><defs><linearGradient id="paint0_linear" x1="272.617" y1="242.673" x2="95.752" y2="13.41" gradientUnits="userSpaceOnUse"><stop stop-color="#315EFB"/><stop offset="1" stop-color="#315EFB" stop-opacity="0"/></linearGradient><linearGradient id="paint1_linear" x1="312.916" y1="75.585" x2="292" y2="46.229" gradientUnits="userSpaceOnUse"><stop stop-color="#315EFB"/><stop offset="1" stop-color="#315EFB" stop-opacity="0"/></linearGradient><linearGradient id="paint2_linear" x1="298.855" y1="163.145" x2="224" y2="58.083" gradientUnits="userSpaceOnUse"><stop stop-color="#28BC00"/><stop offset="1" stop-color="#28BC00" stop-opacity="0"/></linearGradient><linearGradient id="paint3_linear" x1="113.45" y1="95.597" x2="67.028" y2="92.722" gradientUnits="userSpaceOnUse"><stop stop-color="#DADAFF"/><stop offset="1" stop-color="#EEF" stop-opacity="0"/></linearGradient></defs></svg>